<?xml version="1.0" encoding="utf-8"?>
<!-- Generator: Adobe Illustrator 23.0.3, SVG Export Plug-In . SVG Version: 6.00 Build 0)  -->
<svg version="1.1" id="圖層_1" xmlns="http://www.w3.org/2000/svg" xmlns:xlink="http://www.w3.org/1999/xlink" x="0px" y="0px"
	 viewBox="0 0 170 36" style="enable-background:new 0 0 170 36;" xml:space="preserve">
<style type="text/css">
	.st0{fill-rule:evenodd;clip-rule:evenodd;fill:#FFFFFF;}
</style>
<path class="st0" d="M36.03,18.64l-7.49,13.11c-0.17,0.29-0.84,0.69-1.18,0.69H12.37c-0.34,0-1.01-0.39-1.18-0.69L3.7,18.64
	c-0.17-0.29-0.17-1.08,0-1.37l7.49-13.11c0.17-0.29,0.84-0.69,1.18-0.69h14.99c0.34,0,1.01,0.39,1.18,0.69l7.49,13.11
	C36.2,17.57,36.2,18.35,36.03,18.64z M39.23,15.96L31.26,2.02c-0.63-1.1-2.17-2-3.43-2H11.89c-1.26,0-2.8,0.9-3.43,2L0.5,15.96
	c-0.63,1.1-0.63,2.9,0,4L8.47,33.9c0.63,1.1,2.17,2,3.43,2h15.94c1.26,0,2.8-0.9,3.43-2l7.97-13.94
	C39.86,18.86,39.86,17.06,39.23,15.96z"/>
<rect x="8.02" y="18.19" class="st0" width="11.84" height="2.54"/>
<rect x="10.34" y="22.75" class="st0" width="9.52" height="2.54"/>
<rect x="12.66" y="27.3" class="st0" width="7.2" height="2.54"/>
<polyline class="st0" points="60.22,27.91 56.85,27.91 56.85,19.17 48.14,19.17 48.14,27.91 44.76,27.91 44.76,8.24 48.14,8.24 
	48.14,16.43 56.85,16.43 56.85,8.24 60.22,8.24 60.22,27.91 "/>
<path class="st0" d="M68.34,15.66c-0.89,0-1.61,0.32-2.16,0.95c-0.55,0.63-0.9,1.51-1.05,2.63h6.19v-0.24
	c-0.03-0.43-0.1-0.85-0.21-1.25c-0.11-0.4-0.28-0.76-0.52-1.07c-0.23-0.31-0.53-0.56-0.9-0.74C69.33,15.75,68.88,15.66,68.34,15.66z
	 M68.73,28.18c-1.07,0-2.03-0.18-2.89-0.54c-0.86-0.36-1.58-0.86-2.18-1.49c-0.6-0.63-1.06-1.38-1.38-2.24
	c-0.32-0.86-0.48-1.8-0.48-2.8v-0.54c0-1.15,0.17-2.2,0.51-3.13c0.34-0.93,0.8-1.72,1.39-2.38c0.59-0.65,1.28-1.16,2.08-1.51
	c0.8-0.36,1.66-0.53,2.58-0.53c1.05,0,1.97,0.18,2.74,0.53c0.78,0.36,1.42,0.85,1.93,1.49c0.51,0.64,0.89,1.4,1.14,2.28
	c0.25,0.88,0.37,1.85,0.37,2.9v1.41h-9.46c0.04,0.57,0.16,1.09,0.35,1.57c0.19,0.48,0.45,0.89,0.78,1.24
	c0.33,0.35,0.72,0.62,1.17,0.82c0.45,0.2,0.96,0.3,1.53,0.3c0.8,0,1.5-0.16,2.09-0.49c0.59-0.32,1.11-0.77,1.55-1.34l1.75,1.69
	c-0.23,0.35-0.52,0.69-0.86,1.02c-0.34,0.33-0.74,0.62-1.2,0.88c-0.46,0.26-0.98,0.46-1.56,0.62C70.1,28.1,69.45,28.18,68.73,28.18z
	"/>
<polyline class="st0" points="81.25,18.1 84.01,13.29 87.62,13.29 83.19,20.49 87.77,27.91 84.18,27.91 81.29,22.91 78.41,27.91 
	74.8,27.91 79.38,20.49 74.96,13.29 78.55,13.29 81.25,18.1 "/>
<path class="st0" d="M104.23,22.84c0-0.4-0.06-0.75-0.17-1.06c-0.12-0.31-0.33-0.6-0.64-0.86c-0.31-0.26-0.73-0.51-1.27-0.75
	c-0.54-0.24-1.23-0.49-2.08-0.75c-0.93-0.28-1.78-0.6-2.57-0.96c-0.78-0.36-1.46-0.78-2.03-1.26c-0.57-0.48-1.01-1.03-1.33-1.65
	c-0.32-0.62-0.48-1.33-0.48-2.13c0-0.79,0.17-1.52,0.5-2.19c0.33-0.67,0.8-1.24,1.41-1.73c0.61-0.49,1.33-0.86,2.18-1.13
	c0.85-0.27,1.78-0.41,2.81-0.41c1.1,0,2.08,0.16,2.96,0.48c0.87,0.32,1.61,0.75,2.21,1.3c0.6,0.55,1.06,1.19,1.38,1.91
	c0.32,0.72,0.48,1.5,0.48,2.32h-3.37c0-0.48-0.07-0.92-0.22-1.32c-0.15-0.4-0.37-0.75-0.68-1.04c-0.3-0.29-0.69-0.52-1.15-0.68
	c-0.46-0.16-1.01-0.24-1.65-0.24c-0.6,0-1.11,0.07-1.55,0.2c-0.44,0.14-0.8,0.32-1.09,0.57c-0.29,0.24-0.5,0.53-0.64,0.86
	c-0.14,0.33-0.21,0.69-0.21,1.08c0,0.73,0.34,1.34,1.02,1.82c0.68,0.49,1.72,0.94,3.12,1.35c1.1,0.32,2.05,0.68,2.85,1.08
	c0.8,0.4,1.47,0.84,2,1.34c0.53,0.5,0.93,1.06,1.18,1.69c0.26,0.63,0.39,1.33,0.39,2.11c0,0.83-0.16,1.57-0.49,2.24
	c-0.33,0.66-0.79,1.23-1.39,1.69c-0.6,0.46-1.33,0.82-2.19,1.07c-0.86,0.25-1.81,0.37-2.86,0.37c-0.94,0-1.86-0.13-2.77-0.39
	c-0.91-0.26-1.73-0.64-2.45-1.16c-0.72-0.52-1.3-1.16-1.75-1.94c-0.44-0.77-0.66-1.68-0.66-2.73h3.38c0,0.62,0.11,1.16,0.33,1.6
	c0.22,0.45,0.52,0.81,0.9,1.09c0.38,0.28,0.83,0.49,1.34,0.62c0.52,0.13,1.07,0.2,1.67,0.2c1.18,0,2.06-0.24,2.66-0.72
	C103.93,24.27,104.23,23.64,104.23,22.84"/>
<path class="st0" d="M115.67,25.56c0.39,0,0.76-0.06,1.1-0.18c0.34-0.12,0.64-0.29,0.9-0.51c0.25-0.22,0.46-0.48,0.62-0.79
	c0.16-0.31,0.24-0.64,0.26-1h3.06c-0.03,0.7-0.2,1.36-0.51,1.99c-0.32,0.62-0.74,1.16-1.27,1.63c-0.53,0.46-1.15,0.83-1.85,1.09
	c-0.7,0.27-1.46,0.4-2.26,0.4c-1.11,0-2.08-0.19-2.91-0.58c-0.83-0.39-1.51-0.91-2.06-1.58c-0.55-0.67-0.96-1.45-1.22-2.34
	c-0.27-0.89-0.4-1.84-0.4-2.84v-0.47c0-1,0.13-1.95,0.4-2.84c0.27-0.89,0.68-1.67,1.22-2.34c0.55-0.67,1.23-1.2,2.05-1.59
	c0.82-0.39,1.79-0.58,2.9-0.58c0.87,0,1.67,0.14,2.39,0.41c0.72,0.27,1.33,0.65,1.85,1.13c0.51,0.49,0.91,1.07,1.2,1.74
	c0.29,0.68,0.45,1.42,0.47,2.23h-3.06c-0.02-0.39-0.1-0.76-0.23-1.11c-0.14-0.35-0.33-0.66-0.58-0.92
	c-0.25-0.26-0.54-0.47-0.89-0.62c-0.35-0.15-0.74-0.23-1.18-0.23c-0.66,0-1.2,0.14-1.63,0.41c-0.43,0.27-0.77,0.63-1.02,1.07
	c-0.25,0.44-0.42,0.95-0.51,1.51c-0.09,0.57-0.14,1.14-0.14,1.72v0.47c0,0.59,0.05,1.17,0.14,1.74c0.09,0.56,0.27,1.07,0.51,1.51
	c0.25,0.44,0.59,0.8,1.01,1.07C114.45,25.43,115,25.56,115.67,25.56"/>
<path class="st0" d="M126.72,14.89c0.5-0.59,1.09-1.04,1.77-1.37c0.68-0.33,1.43-0.49,2.26-0.49c0.7,0,1.35,0.1,1.93,0.3
	c0.58,0.2,1.07,0.52,1.48,0.95c0.41,0.44,0.73,1,0.95,1.7c0.22,0.7,0.33,1.54,0.33,2.53v9.4h-3.25v-9.43c0-1.01-0.22-1.72-0.65-2.14
	c-0.43-0.42-1.07-0.63-1.91-0.63c-0.68,0-1.26,0.16-1.75,0.47c-0.49,0.32-0.88,0.74-1.17,1.28v10.44h-3.25V7.16h3.25V14.89"/>
<path class="st0" d="M140.27,20.75c0,0.66,0.07,1.28,0.2,1.86c0.13,0.59,0.34,1.1,0.63,1.53c0.29,0.44,0.65,0.78,1.09,1.03
	c0.44,0.25,0.97,0.38,1.57,0.38c0.6,0,1.12-0.13,1.56-0.38c0.44-0.25,0.8-0.6,1.08-1.03c0.28-0.44,0.49-0.95,0.63-1.53
	c0.14-0.59,0.21-1.21,0.21-1.86v-0.28c0-0.65-0.07-1.26-0.21-1.84c-0.14-0.58-0.35-1.09-0.64-1.53c-0.29-0.44-0.65-0.79-1.09-1.05
	c-0.44-0.26-0.97-0.39-1.57-0.39c-0.61,0-1.13,0.13-1.56,0.39c-0.43,0.26-0.79,0.61-1.08,1.05c-0.29,0.44-0.49,0.95-0.63,1.53
	c-0.13,0.58-0.2,1.2-0.2,1.84V20.75z M137.02,20.47c0-1.06,0.15-2.05,0.46-2.95c0.31-0.91,0.75-1.69,1.32-2.36
	c0.58-0.67,1.28-1.19,2.11-1.57c0.83-0.38,1.77-0.57,2.82-0.57c1.06,0,2.01,0.19,2.85,0.57c0.84,0.38,1.55,0.9,2.12,1.57
	c0.58,0.67,1.01,1.45,1.32,2.36c0.3,0.91,0.46,1.89,0.46,2.95v0.28c0,1.06-0.15,2.05-0.46,2.96c-0.3,0.91-0.74,1.7-1.32,2.36
	c-0.58,0.66-1.28,1.18-2.11,1.55c-0.83,0.37-1.78,0.56-2.83,0.56c-1.06,0-2.01-0.19-2.84-0.56c-0.83-0.37-1.54-0.89-2.11-1.55
	c-0.58-0.66-1.02-1.45-1.32-2.36c-0.31-0.91-0.46-1.9-0.46-2.96V20.47z"/>
<path class="st0" d="M155.02,20.75c0,0.66,0.07,1.28,0.2,1.86c0.13,0.59,0.34,1.1,0.63,1.53c0.29,0.44,0.65,0.78,1.09,1.03
	c0.44,0.25,0.97,0.38,1.57,0.38c0.6,0,1.12-0.13,1.56-0.38c0.44-0.25,0.8-0.6,1.08-1.03c0.28-0.44,0.49-0.95,0.63-1.53
	c0.14-0.59,0.21-1.21,0.21-1.86v-0.28c0-0.65-0.07-1.26-0.21-1.84c-0.14-0.58-0.35-1.09-0.64-1.53c-0.29-0.44-0.65-0.79-1.09-1.05
	c-0.44-0.26-0.97-0.39-1.57-0.39c-0.61,0-1.13,0.13-1.56,0.39c-0.43,0.26-0.79,0.61-1.08,1.05c-0.29,0.44-0.49,0.95-0.63,1.53
	c-0.13,0.58-0.2,1.2-0.2,1.84V20.75z M151.77,20.47c0-1.06,0.15-2.05,0.46-2.95c0.31-0.91,0.75-1.69,1.32-2.36
	c0.58-0.67,1.28-1.19,2.11-1.57c0.83-0.38,1.77-0.57,2.82-0.57c1.06,0,2.01,0.19,2.85,0.57c0.84,0.38,1.55,0.9,2.12,1.57
	c0.58,0.67,1.01,1.45,1.32,2.36c0.3,0.91,0.45,1.89,0.45,2.95v0.28c0,1.06-0.15,2.05-0.45,2.96c-0.3,0.91-0.74,1.7-1.32,2.36
	c-0.58,0.66-1.28,1.18-2.11,1.55c-0.83,0.37-1.78,0.56-2.83,0.56c-1.06,0-2.01-0.19-2.84-0.56c-0.83-0.37-1.54-0.89-2.11-1.55
	c-0.58-0.66-1.02-1.45-1.32-2.36c-0.31-0.91-0.46-1.9-0.46-2.96V20.47z"/>
<rect x="166.63" y="7.16" class="st0" width="3.25" height="20.75"/>
</svg>
